<svg xmlns="http://www.w3.org/2000/svg" height="1024" preserveAspectRatio="none" style="display: block;" version="1.1" viewBox="0 0 2048 2048" width="1024">
<path d="M 0 0 L 2048 0 L 2048 2048 L 0 2048 L 0 0 z" fill="rgb(254,254,254)" transform="translate(0,0)"></path>
<path d="M 1005.81 235.332 C 1031.24 237.554 1036.11 256.38 1050.56 275.018 C 1130.12 377.608 1263.4 408.904 1382.51 440.628 C 1418.17 450.125 1471.49 466.446 1473.07 511.062 C 1473.57 523.715 1472.08 536.668 1470.99 549.203 C 1469.51 566.158 1468.11 583.122 1466.81 600.092 C 1461.82 671.403 1454.34 742.518 1444.39 813.307 C 1440.24 842.158 1435.13 878.248 1428.31 906.131 C 1434.99 906.913 1442.26 907.581 1448.98 907.853 C 1573.12 912.894 1697.75 926.438 1821.99 918.076 C 1841.14 916.787 1841.64 934.013 1841.52 948.478 C 1841.13 997.663 1838.07 1047.64 1835.72 1096.74 C 1831.58 1171.4 1829.98 1246.17 1830.94 1320.94 C 1871.54 1321.67 1914.33 1317.08 1954.51 1320.72 C 2001.66 1324.99 1995.11 1384.7 1995.34 1417.54 L 1995.2 1525.94 L 1995.99 1608.65 C 1996.03 1632.76 1998.44 1669.15 1981.95 1688.44 C 1974.34 1697.38 1963.68 1703.18 1952.04 1704.69 C 1935.71 1706.98 1898.25 1705.09 1880.27 1705.04 L 1753.24 1705.97 L 1329.24 1710.15 L 1189.14 1711.36 C 1168.48 1711.61 1140.32 1711.17 1120.16 1712.76 C 1086.02 1745.84 1059.76 1767.83 1017.36 1790.08 C 1005.68 1794.53 947.69 1754.75 937.048 1746.37 C 925.551 1737.31 912.378 1724.87 901.408 1715.1 C 841.097 1715.36 778.92 1717.75 718.442 1718.69 L 360.681 1723.58 C 305.88 1724.51 251.075 1725.12 196.267 1725.41 C 169.073 1725.62 141.295 1726.63 114.209 1725.23 C 48.938 1721.85 54.1158 1643.4 52.0284 1596.11 L 47.5914 1491.99 C 45.6533 1451.21 39.2071 1368.24 85.3655 1349.48 C 114.595 1337.6 164.033 1340.89 196.272 1339.96 C 191.488 1249.62 187.573 1159.23 184.528 1068.8 C 183.62 1045.51 182.541 1022.22 181.291 998.944 C 180.851 990.323 175.706 953.619 185.511 952.206 C 210.655 948.583 238.746 947.976 264.494 946.715 C 356.552 942.204 447.685 936.406 538.87 922.122 C 550.209 920.342 579.669 920.011 587.476 913.483 C 588.762 904.382 572.395 824.58 570.04 810.591 C 561.079 758.278 553.014 705.815 545.852 653.225 C 542.304 625.842 539.22 598.401 536.602 570.913 C 534.908 554.004 531.914 527.398 532.917 510.793 C 533.245 504.896 534.604 499.102 536.932 493.675 C 542.14 481.262 551.831 471.266 564.076 465.675 C 582.147 457.339 623.816 449.996 644.361 445.468 C 728.121 427.007 805.134 412.391 876.749 362.723 C 903.631 344.04 927.295 321.109 946.815 294.828 C 957.274 280.531 967.035 265.448 977.624 251.218 C 986.382 239.448 991.636 237.148 1005.81 235.332 z" fill="rgb(16,16,16)" transform="translate(0,0)"></path>
<path d="M 1856.07 1347.46 C 1875.36 1347.39 1944.71 1343.17 1957.87 1350.98 C 1961.97 1353.41 1965.14 1358.08 1966.3 1362.66 C 1969.87 1376.71 1968.05 1394.77 1968.23 1409.27 C 1968.75 1443.85 1968.99 1478.43 1968.93 1513.02 L 1969.47 1591.54 C 1969.77 1616.21 1973.74 1650.44 1960.61 1671.23 C 1951.04 1676.95 1943.97 1678.45 1932.75 1678.65 C 1882.62 1679.52 1832.19 1679.11 1782.07 1679.59 L 1425.16 1682.52 L 557.5 1692.69 L 348.64 1695.71 C 295.12 1696.05 241.603 1696.69 188.09 1697.65 C 164.12 1698.17 136.477 1699.23 112.439 1697.3 C 108.167 1696.95 101.08 1693.21 97.7966 1690.31 C 84.1879 1678.27 83.4304 1658.02 81.9612 1641.22 C 80.4309 1610.57 79.0088 1579.72 77.4024 1549 C 75.7891 1522.96 74.8698 1496.88 74.6457 1470.79 C 74.2263 1445.52 71.8011 1400.75 87.9667 1380.99 C 99.8769 1366.43 153.196 1368.53 171.743 1368.18 L 270.691 1366.84 L 579 1360.88 C 862.616 1355.59 1146.27 1352.19 1429.93 1350.67 C 1551 1350.77 1672.07 1349.86 1793.12 1347.94 C 1814.11 1347.57 1835.21 1348.06 1856.07 1347.46 z" fill="rgb(254,254,254)" transform="translate(0,0)"></path>
<path d="M 1047.97 1459.98 C 1051.01 1460.01 1054.69 1459.74 1057.37 1461.37 C 1062.7 1464.6 1084.9 1537.91 1089.14 1550.64 C 1093.24 1540.25 1095.75 1530.5 1099.15 1519.95 C 1121.14 1451.66 1138.73 1525.71 1147.22 1550.05 C 1152.4 1536.78 1171.8 1465.86 1179.48 1461.49 C 1181.65 1460.26 1184.29 1460.28 1186.63 1460.95 C 1189.33 1461.71 1191.02 1463.24 1192.2 1465.75 C 1195.98 1473.72 1187.29 1492.56 1184.55 1500.59 C 1176.84 1525.34 1168.69 1549.91 1161.17 1574.73 C 1159.44 1580.42 1157.96 1586.32 1152.14 1589.1 C 1148.97 1590.61 1144.95 1591.16 1141.71 1589.54 C 1134.8 1586.08 1121.78 1542.32 1117.25 1532.26 C 1113.15 1543.72 1104.48 1579.49 1098.25 1586.93 C 1096.23 1589.33 1093.1 1590.55 1090.01 1590.66 C 1086.81 1590.77 1082.6 1589.81 1080.46 1587.24 C 1077.28 1583.43 1040.73 1472.45 1041.09 1467.84 C 1041.4 1463.91 1045.01 1461.86 1047.97 1459.98 z" fill="rgb(16,16,16)" transform="translate(0,0)"></path>
<path d="M 814.351 1460.3 C 829.575 1460 847.993 1458.8 862.653 1462.01 C 883.471 1466.56 897.562 1489.94 890.5 1510.39 C 886.099 1523.13 877.787 1528.08 866.756 1533.9 C 871.158 1543.07 876.78 1551.03 881.842 1559.73 C 886.204 1567.23 896.356 1579.74 890.403 1588.2 C 881.351 1593.8 875.734 1587.56 870.631 1580.68 L 846.683 1539.35 C 840.532 1539.39 833.961 1539.73 827.778 1539.94 C 827.87 1553.45 828.249 1568.44 828.027 1582.02 C 827.888 1584.25 826.212 1587.25 824.169 1588.28 C 815.749 1592.49 808.074 1590.2 808.087 1579.94 C 808.134 1541.87 807.05 1503.71 808.374 1465.75 C 808.446 1463.67 812.728 1461.29 814.351 1460.3 z" fill="rgb(16,16,16)" transform="translate(0,0)"></path>
<path d="M 827.193 1482.09 C 839.505 1481.96 850.807 1481.48 862.931 1483.98 C 874.678 1492.89 875.717 1501.26 866.448 1512.49 C 853.978 1519.38 841.359 1518.12 827.464 1518.04 C 827.436 1506.06 827.346 1494.08 827.193 1482.09 z" fill="rgb(254,254,254)" transform="translate(0,0)"></path>
<path d="M 1268.03 1459.1 C 1271.6 1459.02 1276.42 1458.85 1279.43 1461.19 C 1284.47 1465.12 1328.03 1575.65 1328.75 1583.04 C 1328.11 1584.77 1327.45 1586.8 1326.01 1587.69 C 1309.84 1597.59 1305.47 1576.61 1301.71 1567.23 C 1297.84 1557.57 1296.46 1553.12 1292.59 1546.4 L 1291.87 1545.18 L 1275.5 1544.67 C 1267.12 1544.44 1258.78 1544.63 1250.4 1544.75 C 1245.41 1555.83 1236.6 1592.2 1222.63 1590.68 C 1214.2 1589.76 1214.24 1581.24 1216.73 1574.4 C 1228.07 1543.32 1240.84 1512.66 1252.86 1481.84 C 1256.79 1471.83 1258.02 1464.19 1268.03 1459.1 z" fill="rgb(16,16,16)" transform="translate(0,0)"></path>
<path d="M 1270.15 1491.58 C 1275.09 1497.43 1282.76 1519.16 1285.79 1527.13 L 1269.75 1527.23 L 1255.84 1527.2 C 1260.27 1515.49 1265.45 1503.24 1270.15 1491.58 z" fill="rgb(254,254,254)" transform="translate(0,0)"></path>
<path d="M 937.287 1460.24 C 959.482 1459.1 989.261 1460.23 1011.73 1460.73 C 1018.42 1460.88 1018 1474.13 1015.32 1479.54 C 1014.49 1480.21 1013.66 1480.87 1012.82 1481.54 C 996.975 1482.56 965.95 1482.53 951.227 1482.99 L 951.089 1522.6 C 959.463 1522.74 969.089 1521.86 972.086 1531.84 C 970.399 1542.52 959.088 1540.73 951.25 1540 C 951.147 1546.31 949.449 1561.93 952.347 1567.15 C 952.962 1568.26 956.011 1567.98 957.75 1568.07 C 971.936 1567.88 1000.8 1565.39 1013.92 1571.03 C 1019.86 1573.58 1018.87 1590.62 1008.89 1590.29 C 986.23 1589.55 962.853 1591.44 940.235 1589.98 C 930.623 1589.34 931.202 1582.01 930.449 1574.39 C 930.577 1538.67 929.886 1502.63 931.413 1466.97 C 931.545 1463.88 934.985 1461.7 937.287 1460.24 z" fill="rgb(16,16,16)" transform="translate(0,0)"></path>
<path d="M 550.543 1509.69 C 555.866 1500.95 577.71 1461.71 585.577 1460.53 C 618.216 1455.66 568.542 1518.28 562.511 1527.17 C 570.383 1538.09 592.283 1569.41 597.769 1582.39 C 598.781 1584.78 594.637 1588.94 592.387 1590.87 C 585.421 1591.17 582.917 1591.05 578.296 1585.51 C 567.887 1573.02 561.098 1557.98 551.137 1545.06 L 550.089 1543.71 C 541.732 1554.82 523.909 1592.6 509.605 1590.8 C 505.3 1588.52 501.495 1583.14 504.123 1578.52 C 514.463 1560.37 526.984 1542.89 537.88 1525.03 C 536.695 1523.58 535.529 1522.11 534.384 1520.63 C 528.457 1512.94 501.875 1476.36 503.354 1466.55 C 503.875 1463.1 508.068 1461.31 511.05 1459.95 C 518.276 1460.75 520.474 1463.39 524.431 1469.32 C 533.343 1482.68 541.394 1496.48 550.543 1509.69 z" fill="rgb(16,16,16)" transform="translate(0,0)"></path>
<path d="M 634.392 1461.14 C 646.879 1461.06 708.13 1459.31 714.432 1462.6 C 720.435 1469.56 718.101 1482.85 708.976 1483.44 C 688.951 1484.73 668.052 1483.99 647.891 1483.9 L 647.952 1510.12 C 664.697 1510.06 691.536 1500.97 687.4 1525.97 C 680.325 1534.23 659.031 1531.17 647.863 1530.92 C 647.91 1540.77 649.121 1579.2 645.633 1586.32 C 637.85 1593.86 627.791 1588.35 627.721 1578.78 C 627.454 1542.29 627.243 1505.47 628.411 1469.02 C 628.534 1465.19 631.605 1463.01 634.392 1461.14 z" fill="rgb(16,16,16)" transform="translate(0,0)"></path>
<path d="M 1364.87 1460.09 C 1371.74 1459.81 1378.85 1459.96 1379.56 1468.91 C 1380.5 1480.77 1380.05 1492.96 1379.98 1504.89 L 1379.68 1569.05 C 1390.35 1569.4 1407.57 1569.51 1418.22 1568.75 C 1434.03 1567.63 1445.34 1580.23 1431.25 1589.27 C 1429.17 1589.49 1427.12 1589.68 1425.03 1589.72 C 1415.2 1589.9 1368.35 1592.76 1362.98 1586.97 C 1361.06 1584.9 1359.93 1582.46 1359.52 1579.68 C 1357.33 1564.66 1359.09 1547.1 1359.02 1531.79 C 1358.93 1511.65 1357.11 1487.88 1359.07 1468.17 C 1359.48 1464.1 1361.93 1462.5 1364.87 1460.09 z" fill="rgb(16,16,16)" transform="translate(0,0)"></path>
<path d="M 1470.64 1460.06 C 1477.07 1459.67 1483.96 1459.74 1484.58 1468.03 C 1485.39 1478.86 1485.02 1490.27 1484.99 1501.12 C 1484.85 1523.45 1484.85 1545.79 1485 1568.12 C 1494.21 1568.55 1508.73 1568.67 1517.96 1567.91 C 1533.89 1566.6 1543.67 1579.83 1530.31 1589.2 C 1519.91 1590.89 1474.54 1591.88 1467.07 1586.39 C 1465.89 1582.62 1465.13 1577.89 1465.13 1573.85 C 1465.13 1538.02 1464.35 1502.03 1465.37 1466.23 C 1465.44 1463.59 1468.63 1461.47 1470.64 1460.06 z" fill="rgb(16,16,16)" transform="translate(0,0)"></path>
<path d="M 750.645 1459.98 C 755.764 1460.44 758.572 1460.54 762.487 1463.76 C 767.671 1471.83 764.32 1567.92 763.514 1583.95 C 763.385 1586.51 759.547 1588.39 757.447 1589.53 C 752.331 1589.49 749.478 1589.71 745.662 1586.26 C 740.588 1575.4 745.627 1490.27 743.495 1471.33 C 742.846 1465.57 745.824 1462.71 750.645 1459.98 z" fill="rgb(16,16,16)" transform="translate(0,0)"></path>
<path d="M 109.117 1393.94 C 115.326 1395.06 119.509 1397.12 121.966 1403.36 C 123.192 1406.4 123.132 1409.81 121.801 1412.81 C 119.89 1417.09 117.181 1418.48 113.064 1420.04 C 94.2932 1417.51 95.1672 1400.98 109.117 1393.94 z" fill="rgb(16,16,16)" transform="translate(0,0)"></path>
<path d="M 110.12 1652.02 C 127.654 1652.08 130.187 1668.41 117.465 1675.96 C 98.7248 1676.56 95.6749 1658.59 110.12 1652.02 z" fill="rgb(16,16,16)" transform="translate(0,0)"></path>
<path d="M 1928.15 1372.51 C 1934.7 1371.68 1940.7 1376.28 1941.61 1382.82 C 1942.52 1389.37 1938 1395.42 1931.47 1396.41 C 1927.17 1397.06 1922.86 1395.35 1920.17 1391.93 C 1917.49 1388.52 1916.85 1383.92 1918.5 1379.9 C 1920.15 1375.88 1923.84 1373.06 1928.15 1372.51 z" fill="rgb(16,16,16)" transform="translate(0,0)"></path>
<path d="M 1929.98 1623.59 C 1936.1 1621.4 1942.85 1624.58 1945.04 1630.71 C 1947.24 1636.83 1944.05 1643.57 1937.92 1645.76 C 1931.8 1647.95 1925.06 1644.77 1922.87 1638.65 C 1920.68 1632.53 1923.86 1625.79 1929.98 1623.59 z" fill="rgb(16,16,16)" transform="translate(0,0)"></path>
<path d="M 1011.4 368.695 C 1013.96 370.086 1034.17 395.398 1038.14 399.857 C 1043.71 406.073 1049.52 412.077 1055.54 417.856 C 1066.29 428.21 1083.31 442.828 1095.67 450.409 C 1155.18 486.918 1321.96 563.546 1388.06 524.969 C 1388.2 526.133 1388.33 527.3 1388.43 528.468 C 1392.77 579.464 1391.96 649.991 1389.75 700.369 C 1381.16 896.566 1342.16 1090.4 1234.17 1257.47 C 1219.9 1279.55 1203.66 1305.69 1186.94 1325.86 C 1132.55 1326.94 1078.15 1327.39 1023.75 1327.23 C 991.79 1327.89 959.823 1328.19 927.856 1328.15 C 895.544 1328.42 863.911 1329.25 831.547 1328.8 C 786.184 1267 749.176 1199.48 721.481 1127.99 C 660.759 971.812 622.662 709.553 644.513 543.976 C 660.443 547.547 675.857 548.36 692.104 546.583 C 748.315 540.436 893.704 479.275 938.244 445.375 C 966.407 423.94 989.414 396.181 1011.4 368.695 z" fill="rgb(254,254,254)" transform="translate(0,0)"></path>
<path d="M 1004.1 589.122 C 1008.73 588.649 1014.7 588.005 1015.08 594.025 C 1010.95 600.926 993.947 603.542 985.666 607.519 C 957.853 620.879 929.909 638.315 908.1 660.301 C 913.728 667.603 921.697 675.974 927.792 683.388 C 941.722 700.333 953.429 715.492 964.812 734.163 C 976.566 723.319 988.971 713.237 1002.01 703.958 C 1006.39 700.844 1008.81 699.502 1013.91 700.377 C 1014.83 701.416 1015.44 701.581 1015.32 703.104 C 1014.71 710.416 979.07 736.812 971.812 744.251 C 984.523 768.022 993.584 785.467 1002.75 810.88 C 994.285 820.977 974.37 846.954 967.615 857.671 C 978.328 871.458 993.88 884.763 1004.38 899.534 C 999.997 918.488 982.219 952.477 973.158 969.32 C 980.188 975.731 1004.16 994.045 1003.95 1002.16 C 1002.67 1003.52 1001.57 1005.2 999.112 1004.53 C 989.558 1001.9 974.663 986.15 967.587 979.292 C 954.531 996.492 939.576 1018.48 926.648 1036.43 C 951.665 1058.29 979.985 1070.17 1009.53 1083.66 C 1010.34 1084.03 1010.19 1085.92 1010.26 1086.81 C 1008.5 1090.71 1009.78 1089.21 1006.43 1091.62 C 985.777 1091.64 935.826 1058.7 919.996 1045.03 C 907.778 1057.85 891.45 1075.37 879.702 1088.56 C 906.427 1116.61 938.447 1143.77 973.045 1161.54 C 986.242 1168.32 1001.49 1173.01 1014.5 1179.72 C 1016.36 1180.68 1016.73 1183.29 1017.01 1185.07 C 1006.22 1197.14 942.347 1157.17 930.469 1148.44 C 919.109 1140.11 909.912 1132.98 899.49 1123.45 C 890.144 1114.91 880.302 1103.75 870.178 1096.69 C 860.897 1103.47 826.953 1134.18 817.395 1132.64 C 814.464 1129.54 815.302 1131.27 814.353 1127.48 C 816.632 1121.88 851.816 1098.03 861.741 1088.06 L 862.814 1086.98 C 855.859 1076.33 845.824 1063.74 838.168 1052.8 C 828.597 1039.12 816.398 1020.1 805.804 1007.66 C 801.039 1009.33 795.281 1011.4 791.293 1007.16 C 791.96 1004.14 794.155 1001.54 796.711 999.848 C 816.774 986.556 837.292 975.886 855.229 959.415 C 840.294 917.278 840.437 904.913 838.721 862.013 C 827.979 878.052 817.433 891.987 804.219 906.223 C 802.089 908.517 800.612 908.908 797.605 909.035 C 794.487 907.475 795.623 908.619 794.093 905.47 C 794.17 903.009 794.93 901.018 796.465 899.116 C 809.969 882.388 821.118 869.94 832.607 851.352 C 823.914 841.072 814.426 831.493 804.23 822.703 C 798.01 817.421 791.199 812.211 785.336 806.574 C 782.951 804.281 783.381 803.217 783.57 800.677 C 786.037 797.325 784.486 798.221 787.985 797.303 C 797.156 799.967 829.538 831.002 838.543 839.242 C 842.022 808.873 852.134 777.498 861.918 748.738 C 842.666 731.364 824.428 718.852 802.834 704.964 C 799.694 702.944 799.11 701.377 798.753 697.904 C 800.407 694.443 799.186 695.609 802.043 693.84 C 806.954 693.314 832.578 710.371 839.136 714.192 C 853.627 700.467 878.686 673.536 891.054 658.038 C 878.713 646.663 861.016 634.9 849.001 623.353 C 847.467 621.878 848.161 619.455 848.653 617.629 L 850.741 616.454 C 861.722 616.611 890.721 643.189 900.024 651.129 C 931.024 625.166 964.799 600.718 1004.1 589.122 z" fill="rgb(16,16,16)" transform="translate(0,0)"></path>
<path d="M 871.284 757.907 C 879.178 764.433 900.016 790.095 909.173 800.009 C 907.48 803.773 905.844 807.563 904.266 811.377 C 889.81 846.839 899.402 871.831 913.122 904.367 C 904.825 913.312 894.442 923.12 885.636 931.802 C 878.395 938.525 871.822 944.887 863.806 950.728 C 842.41 892.77 847.42 814.759 871.284 757.907 z" fill="rgb(254,254,254)" transform="translate(0,0)"></path>
<path d="M 899.523 668.572 C 914.528 680.221 945.536 725.453 957.258 742.434 C 938.24 760.386 930.794 769.293 915.501 789.653 C 910.407 783.935 904.422 777.905 899.102 772.308 C 891.47 763.852 883.742 755.484 875.921 747.204 C 878.802 739.771 888.162 727.219 884.799 720.535 C 881.187 718.618 883.021 718.92 879.148 719.35 C 873.232 722.948 870.545 731.277 867.689 737.726 C 861.09 733.427 853.8 726.794 848.081 721.449 C 866.378 703.567 879.287 685.863 899.523 668.572 z" fill="rgb(254,254,254)" transform="translate(0,0)"></path>
<path d="M 918.381 915.837 C 921.509 919.434 931.103 934.297 934.487 939.134 C 942.85 951.09 949.525 959.023 959.135 969.845 C 953.07 980.578 925.997 1021.25 917.192 1027.61 L 915.235 1026.74 C 898.05 1007.67 879.821 986.942 870.029 962.915 C 880.644 950.993 906.178 926.537 918.381 915.837 z" fill="rgb(254,254,254)" transform="translate(0,0)"></path>
<path d="M 859.044 971.679 C 862.454 973.263 877.717 999.105 882.282 1005.04 C 891.408 1016.89 900.123 1025.75 910.412 1036.51 C 902.399 1048.24 883.771 1071.15 871.57 1078.14 C 860.73 1067.33 823.759 1014.42 817.307 1000.51 C 832.273 990.579 844.352 982.307 859.044 971.679 z" fill="rgb(254,254,254)" transform="translate(0,0)"></path>
<path d="M 962.647 752.814 C 969.765 760.706 985.033 796.687 989.73 808.067 C 982.45 817.989 969.001 837.155 961.236 845.432 C 958.581 844.804 958.023 843.137 955.794 840.542 C 944.536 827.122 933.713 813.341 923.342 799.223 C 937.326 779.059 945.477 769.654 962.647 752.814 z" fill="rgb(254,254,254)" transform="translate(0,0)"></path>
<path d="M 960.409 866.651 C 964.619 869.381 986.924 896.04 991.766 901.606 C 988.222 911.752 971.294 952.027 964.618 958.443 L 963.132 957.377 C 951.668 943.993 933.727 920.491 927.706 904.465 C 938.782 892.013 949.684 879.407 960.409 866.651 z" fill="rgb(254,254,254)" transform="translate(0,0)"></path>
<path d="M 916.904 810.431 C 923.752 815.938 946.189 847.805 952.837 856.963 C 946.949 865.382 939.805 873.613 933.207 881.548 C 929.265 886.42 925.883 890.053 921.597 894.596 C 907.967 866.547 903.855 839.828 916.904 810.431 z" fill="rgb(254,254,254)" transform="translate(0,0)"></path>
<path d="M 1197.81 607.418 C 1203.85 608.702 1216.03 620.657 1220.38 625.342 C 1325.6 738.636 1329.04 938.902 1229 1056.63 C 1222.21 1064.63 1205.96 1086.75 1195.53 1086.44 C 1185.23 1072.42 1172.63 1052.22 1162.78 1037.34 C 1166.42 1031.48 1173.32 1024.63 1178.05 1019.27 C 1256.17 930.586 1259.45 786.155 1192.73 690.107 C 1184.59 678.397 1174.43 667.914 1164.47 657.493 C 1168.86 648.241 1190.41 613.602 1197.81 607.418 z" fill="rgb(16,16,16)" transform="translate(0,0)"></path>
<path d="M 1141.44 688.649 C 1230.77 762.364 1228.82 918.572 1147.48 999.366 C 1145.13 1001.7 1141.72 1001.45 1138.84 1000.97 C 1133.43 992.676 1115.41 967.381 1113.58 958.331 C 1116.61 948.836 1132.34 933.447 1136.41 924.836 C 1158.79 877.47 1162.71 816.613 1139.07 769.026 C 1132.27 755.338 1121.19 743.684 1110.5 732.997 C 1118.31 720.117 1131.86 699.87 1141.44 688.649 z" fill="rgb(16,16,16)" transform="translate(0,0)"></path>
<path d="M 1094.99 754.671 C 1132.02 771.292 1131.83 827.302 1128.51 861.041 C 1126.37 882.858 1119.49 914.517 1101.02 929.046 C 1098.37 931.129 1097.68 931.518 1094.61 931.017 C 1090.41 927.792 1089.09 925.195 1086.15 920.821 C 1069.73 894.188 1052.2 869.384 1036.25 841.983 C 1039.82 834.105 1050.64 818.98 1056.05 810.96 C 1068.63 791.923 1081.61 773.156 1094.99 754.671 z" fill="rgb(16,16,16)" transform="translate(0,0)"></path>
<path d="M 1003.19 261.668 C 1006.05 261.795 1008.68 261.176 1011.03 263.689 C 1019.34 272.596 1025.36 283.824 1032.94 293.278 C 1105.17 383.38 1218.96 424.65 1327.28 452.449 C 1360.07 460.866 1398.33 469.519 1428.02 485.803 C 1449.83 497.761 1449.42 512.959 1446.78 535.14 C 1445.85 543.003 1445.3 552.645 1444.65 560.886 L 1439.35 631.834 C 1427.71 783.66 1410.61 907.914 1366.28 1054.53 C 1351.68 1104.63 1333.61 1153.66 1312.21 1201.27 C 1292.11 1244.13 1268.93 1285.48 1242.86 1325 C 1228.95 1325.39 1215.03 1325.52 1201.12 1325.4 C 1215.67 1303.16 1230.9 1282.08 1245.52 1259.47 C 1376.55 1056.81 1405.99 809.212 1402.17 572.929 C 1401.99 562.018 1402.24 519.78 1397.21 512.62 C 1388.39 507.487 1379.9 516.861 1371.51 519.819 C 1351.77 526.033 1326.51 523.582 1306.34 520.178 C 1242.17 509.349 1178.99 482.031 1121.72 451.992 C 1102.08 441.694 1080.34 423.417 1063.8 409.304 C 1045.74 393.898 1029.58 370.767 1015.74 351.584 L 1015.27 351.025 C 1014.73 350.823 1014.22 350.436 1013.63 350.417 C 1010.58 350.319 1000.74 363.96 998.476 366.808 C 975.222 396.021 949.956 423.693 918.406 444.187 C 869.818 475.749 750.515 526.675 693.085 535.297 C 683.496 536.737 673.714 537.588 664.033 536.617 C 657.525 535.964 644.581 530.942 640.015 531.896 C 632.505 536.261 631.704 556.213 631.057 564.753 C 623.109 669.614 628.163 774.971 646.345 878.583 C 661.696 966.058 679.74 1058.74 713.894 1141.17 C 733.02 1188.55 755.782 1234.38 781.976 1278.26 C 791.889 1294.85 807.976 1313.23 816.111 1329.64 C 802.907 1330 789.694 1329.92 776.496 1329.39 C 761.508 1301.15 745.882 1266.12 732.19 1237 C 707.512 1184.53 677.623 1122.45 658.517 1067.75 C 615.14 943.58 592.898 809.86 574.612 680.146 C 569.99 646.027 565.809 611.851 562.07 577.624 C 560.012 559.538 549.55 498.208 568.519 490.709 C 604.117 476.635 654.399 468.565 692.161 459.953 C 719.132 453.853 745.938 447.044 772.552 439.534 C 849.289 417.475 922.084 372.3 969.15 307.002 C 978.079 294.615 992.429 271.556 1003.19 261.668 z" fill="rgb(254,254,254)" transform="translate(0,0)"></path>
<path d="M 363.382 1065.57 C 380.791 1064.26 404.539 1065.03 422.386 1065.18 C 422.982 1109.46 423.157 1153.73 422.91 1198.01 C 367.718 1200.9 312.494 1203.14 257.25 1204.75 C 239.156 1204.99 221.06 1205.06 202.965 1204.96 C 202.202 1198.57 201.74 1190.84 201.627 1184.36 C 200.955 1145.87 196.969 1105.67 197.187 1067.28 C 223.001 1066.33 251.305 1066.91 277.309 1066.88 C 306.005 1066.8 334.698 1066.36 363.382 1065.57 z" fill="rgb(254,254,254)" transform="translate(0,0)"></path>
<path d="M 1773.35 1040.48 C 1791.04 1040.1 1808.74 1039.99 1826.43 1040.15 C 1826.39 1074.88 1823.51 1119.84 1821.26 1154.65 C 1767.62 1161.24 1694.61 1161.01 1639.25 1162.82 C 1622.24 1163 1604.07 1164.07 1586.99 1164.79 L 1587.06 1048.08 C 1649.08 1043.99 1711.2 1041.46 1773.35 1040.48 z" fill="rgb(254,254,254)" transform="translate(0,0)"></path>
<path d="M 593.227 1064.6 C 603.312 1063.22 613.011 1063.76 623.125 1064.1 C 624.318 1104.82 624.65 1155.22 623.063 1195.62 C 569.362 1196.15 515.376 1195.38 461.75 1197.01 C 452.558 1197.3 443.361 1197.43 434.164 1197.4 C 433.055 1154.37 434.458 1108.68 433.808 1064.99 C 483.346 1065.65 543.79 1065.9 593.227 1064.6 z" fill="rgb(254,254,254)" transform="translate(0,0)"></path>
<path d="M 1667.72 1173.56 L 1684.31 1172.95 C 1683.07 1217.43 1682.3 1261.92 1681.98 1306.42 L 1514.4 1301.12 L 1492.55 1300.98 C 1492.85 1260.95 1495.01 1221.02 1495.23 1180.84 C 1508.61 1179.14 1531.83 1178.63 1545.86 1177.92 C 1586.46 1176.02 1627.08 1174.57 1667.72 1173.56 z" fill="rgb(254,254,254)" transform="translate(0,0)"></path>
<path d="M 489.555 1207.44 C 502.803 1206.8 518.356 1207.17 531.794 1207.21 C 530.469 1246 530.122 1285.1 529.004 1323.98 L 367.057 1327.24 C 353.4 1327.4 339.045 1326.77 325.413 1326.06 C 325.64 1302.39 325.511 1278.71 325.027 1255.04 C 324.839 1242.52 323.996 1227.35 324.876 1215.2 C 337.686 1213.3 358.99 1212.62 372.323 1211.86 C 411.288 1209.63 450.51 1208.96 489.555 1207.44 z" fill="rgb(254,254,254)" transform="translate(0,0)"></path>
<path d="M 511.609 938.409 C 514.462 937.97 515.177 937.557 517.844 938.59 C 518.559 941.519 517.831 963.185 517.807 968.015 L 517.619 1052.67 C 487.006 1053.94 451.358 1053.42 420.421 1053.33 C 384.196 1053.05 347.969 1053.27 311.75 1054 C 307.779 1054.05 308.334 1054.68 305.76 1052.81 C 304.59 1044.53 305.221 1026.53 305.321 1017.37 L 305.947 956.24 C 337.713 952.478 373.65 952.593 406.198 949.612 C 441.504 946.379 476.441 941.645 511.609 938.409 z" fill="rgb(254,254,254)" transform="translate(0,0)"></path>
<path d="M 543.128 1207.34 C 584.513 1208.39 647.692 1209.11 688.532 1206.97 C 702.927 1235.06 716.069 1263.76 727.919 1293.01 C 731.647 1302.08 737.348 1314.87 740.143 1324.02 C 738.306 1325.4 733.931 1325.11 731.136 1325.25 C 673.817 1328.77 614.498 1338.29 557.706 1326.92 C 551.99 1325.77 546.282 1324.71 540.58 1323.48 C 540.22 1312.19 541.303 1294.75 541.616 1282.95 C 542.332 1257.75 542.836 1232.54 543.128 1207.34 z" fill="rgb(254,254,254)" transform="translate(0,0)"></path>
<path d="M 1562.43 1049.42 C 1565.61 1049 1572.37 1048.97 1575.83 1048.85 C 1575.19 1087.19 1576.52 1126.27 1575.82 1164.99 C 1559.97 1167.15 1530.37 1167.55 1513.43 1168.39 C 1481.05 1170.01 1446.99 1172.61 1414.75 1173.25 L 1402.31 1173.97 C 1402.1 1135.67 1402.28 1097.38 1402.84 1059.09 L 1562.43 1049.42 z" fill="rgb(254,254,254)" transform="translate(0,0)"></path>
<path d="M 1481.16 1181.41 L 1483 1181.74 C 1485.82 1185.33 1480.86 1287.37 1480.39 1300.35 C 1419.58 1299.93 1351.71 1300.24 1290.75 1302.11 L 1288.46 1301.5 C 1288.64 1299.55 1288.36 1299.84 1289.17 1298.5 C 1310.57 1262.86 1327.18 1225.31 1345.14 1187.93 C 1388.82 1187.08 1437.14 1183.69 1481.16 1181.41 z" fill="rgb(254,254,254)" transform="translate(0,0)"></path>
<path d="M 1512.67 923.036 C 1570.84 925.324 1628.98 928.248 1687.08 931.808 C 1687.16 951.93 1685.84 973.254 1685.23 993.493 C 1684.98 1001.99 1684.53 1023.11 1682.9 1030.08 C 1679.75 1031.69 1678.56 1031.21 1674.76 1031.31 C 1637.83 1034.8 1599.55 1034.86 1562.47 1037.85 C 1545.06 1039.25 1526.63 1040.68 1509.23 1041.19 C 1509.43 1015.14 1511.1 988.806 1511.33 962.701 C 1511.45 949.665 1511.74 936.007 1512.67 923.036 z" fill="rgb(254,254,254)" transform="translate(0,0)"></path>
<path d="M 1789.56 1169.44 C 1799.59 1168.86 1810.75 1169 1820.87 1168.91 C 1819.05 1217.06 1815.73 1264.04 1812.65 1311.97 C 1786.71 1311.82 1757.97 1309.72 1731.75 1308.67 C 1719.37 1307.61 1705.24 1307.3 1692.79 1306.93 C 1693.26 1262.2 1694.01 1217.48 1695.05 1172.76 C 1725.67 1170.94 1758.63 1170.71 1789.56 1169.44 z" fill="rgb(254,254,254)" transform="translate(0,0)"></path>
<path d="M 1814.86 930.582 C 1819.08 930.216 1823.65 930.122 1827.91 929.945 C 1832.31 947.348 1828.76 1008.93 1826.83 1028.91 C 1790.18 1027.54 1744.62 1028.68 1707.75 1030.09 L 1696.27 1030.79 C 1695.11 1002.68 1698.76 962.277 1699.01 932.28 C 1735.56 934.423 1778.34 932.811 1814.86 930.582 z" fill="rgb(254,254,254)" transform="translate(0,0)"></path>
<path d="M 271.882 1214.46 C 281.399 1214.11 304.314 1213.94 313.039 1215.09 C 312.881 1251.53 313.942 1289.43 314.123 1326.12 C 293.67 1328.86 264.573 1329 243.898 1329.17 C 231.752 1329.95 219.573 1330.07 207.413 1329.54 C 206.052 1297.93 200.887 1247.3 202.212 1217.21 C 227.433 1215.26 246.917 1215.29 271.882 1214.46 z" fill="rgb(254,254,254)" transform="translate(0,0)"></path>
<path d="M 1425.38 918.893 C 1445.86 918.81 1481.42 920.479 1501.44 922.948 C 1500.98 961.368 1497.78 1004.04 1498.79 1041.85 C 1487.93 1042.25 1477.08 1042.87 1466.25 1043.7 C 1442.82 1045.58 1418.94 1046.61 1395.37 1048.36 C 1397.32 1036.58 1402.69 1019.34 1405.58 1007.29 C 1412.57 978.185 1420.7 948.47 1425.38 918.893 z" fill="rgb(254,254,254)" transform="translate(0,0)"></path>
<path d="M 268.89 958.567 C 276.537 957.908 285.738 957.748 293.514 957.412 C 294.846 987.257 294.542 1024.31 294.004 1054.39 C 269.477 1056.07 240.737 1055.04 215.24 1056.08 C 209.039 1056.23 203.084 1056.95 197.42 1054.77 C 196.765 1054.1 196.11 1053.42 195.455 1052.75 C 193.411 1029.66 192.123 983.702 191.456 962.774 C 212.84 960.062 247 959.349 268.89 958.567 z" fill="rgb(254,254,254)" transform="translate(0,0)"></path>
<path d="M 578.411 931.42 C 583.753 931.175 589.394 930.28 593.611 933.674 C 595.536 938.187 601.817 962.748 603.105 968.479 C 608.443 992.228 622.064 1030.07 623.786 1053.03 L 573.101 1052.44 L 528.904 1052.47 C 530.169 1014.36 528.206 974.48 530.481 936.271 C 545.705 933.817 562.889 932.696 578.411 931.42 z" fill="rgb(254,254,254)" transform="translate(0,0)"></path>
<path d="M 634.931 1076.62 C 637.363 1081.01 639.069 1085.62 640.867 1090.29 C 654.4 1125.48 669.675 1159.95 683.159 1195.16 C 667.118 1195.4 651.074 1195.39 635.034 1195.12 L 634.931 1076.62 z" fill="rgb(254,254,254)" transform="translate(0,0)"></path>
<path d="M 1390.62 1060.76 C 1393.16 1063.33 1391.05 1161.59 1391.01 1174.8 C 1378.28 1175.3 1363.17 1176.74 1350.34 1177.83 L 1349.97 1177.29 C 1349.83 1174.84 1356.88 1157.96 1358.39 1154.33 C 1371.05 1123.76 1379.34 1091.78 1390.62 1060.76 z" fill="rgb(254,254,254)" transform="translate(0,0)"></path>
<path d="M 1390.1 1311.25 C 1439.01 1310.98 1524.57 1310.49 1577.23 1314.25 C 1578.32 1314.33 1578.74 1316.04 1579.32 1317.33 C 1578.59 1321.59 1579.66 1320.25 1577.05 1322.27 C 1515.77 1323.94 1451.41 1323.56 1389.94 1324.08 L 1390.1 1311.25 z" fill="rgb(254,254,254)" transform="translate(0,0)"></path>
<path d="M 1331.49 1311.47 C 1347.24 1311.19 1363 1311.19 1378.76 1311.48 C 1379.13 1315.58 1379.77 1319.92 1380.28 1324.02 L 1353.09 1324.08 C 1337.25 1324.37 1321.4 1324.43 1305.56 1324.26 C 1305.08 1321.23 1305.04 1315.46 1304.91 1312.19 L 1331.49 1311.47 z" fill="rgb(254,254,254)" transform="translate(0,0)"></path>
<path d="M 1650.85 1321.87 C 1641.52 1321.94 1596.8 1324.32 1592.67 1318.48 L 1593.26 1315.78 C 1605.21 1311.94 1700.66 1318.87 1721.28 1318.99 C 1734.61 1319.13 1749.07 1319.42 1762.38 1320.17 C 1757.36 1320.67 1752.62 1321.12 1747.62 1321.91 C 1716.45 1322.1 1681.72 1322.93 1650.85 1321.87 z" fill="rgb(254,254,254)" transform="translate(0,0)"></path>
<path d="M 1721.28 1318.99 C 1734.61 1319.13 1749.07 1319.42 1762.38 1320.17 C 1757.36 1320.67 1752.62 1321.12 1747.62 1321.91 C 1716.45 1322.1 1681.72 1322.93 1650.85 1321.87 C 1664.82 1319.76 1690.52 1322.08 1705.79 1321.11 C 1711.95 1320.71 1717.83 1321.82 1724.37 1320.39 L 1721.28 1318.99 z" fill="rgb(159,159,159)" transform="translate(0,0)"></path>
<path d="M 1281.95 1312.94 C 1288.13 1312.73 1297.28 1312.44 1295.85 1321.51 C 1292.54 1324.76 1294.07 1323.77 1289.36 1324.9 L 1274.14 1324.24 C 1276.41 1320.43 1279.35 1316.57 1281.95 1312.94 z" fill="rgb(254,254,254)" transform="translate(0,0)"></path>
<path d="M 260.887 1338.51 L 284.098 1339.23 C 270.726 1341.75 245.34 1341.57 230.749 1341.87 C 227.171 1342.04 212.811 1343.07 210.608 1340.59 C 227.354 1339.59 244.116 1338.9 260.887 1338.51 z" fill="rgb(159,159,159)" transform="translate(0,0)"></path>
<path d="M 456.494 1335.2 C 462.385 1334.6 499.976 1334.09 503.512 1336.4 L 502.111 1337.08 C 494.892 1336.81 458.767 1338.35 455.427 1336.8 L 456.494 1335.2 z" fill="rgb(114,114,115)" transform="translate(0,0)"></path>
<path d="M 1762.38 1320.17 C 1766.26 1319.88 1767.85 1319.85 1771.73 1320.08 L 1772.42 1320.92 L 1772.92 1320.11 L 1773.25 1320.69 C 1764.17 1322.72 1756.86 1322.62 1747.62 1321.91 C 1752.62 1321.12 1757.36 1320.67 1762.38 1320.17 z" fill="rgb(38,38,38)" transform="translate(0,0)"></path>
<metadata><recraft-signature>{"signed_by": "recraft", "signature_b64": "QvQ+26/9jhLKN3JTwjvjI6wGNotNjwAUNTThc4X66Ndg44USOWoUA4BgmOnTOtX9+XjLqyIhDsDFURkzFadfDQ==", "signing_algo": "Ed25519", "generation_timestamp": 1768193697, "identifier": "bd6878e5-525e-46fc-810b-65df2913ea57"}</recraft-signature></metadata></svg>